<svg xmlns="http://www.w3.org/2000/svg" width="35" height="35" style="enable-background:new 0 0 35 35" xml:space="preserve"><style>.st0{enable-background:new}</style><g id="Ellipse_1_copy_2_1_" class="st0"><circle transform="scale(1.00002) rotate(-4.065 17.5 17.5)" cx="17.5" cy="17.5" style="fill-rule:evenodd;clip-rule:evenodd;fill:#f5f6fe" id="Ellipse_1_copy_2" r="17.5"/></g><g id="_x33__1_" class="st0"><path d="M19.7 17c1.6-.3 3.2-1.5 3.2-3.3 0-2.4-2.1-4-5.5-4-2.6 0-4.4 1-5.6 2.3l1.6 2c1-1 2.3-1.5 3.7-1.5 1.5 0 2.7.6 2.7 1.7s-1.1 1.6-2.7 1.6h-1.8v2.8h1.8c2 0 2.9.5 2.9 1.7 0 1.1-1 1.9-2.8 1.9-1.4 0-3-.6-4-1.7l-1.6 2.1c1.1 1.3 3.1 2.4 5.8 2.4 3.5 0 5.8-1.8 5.8-4.3 0-2.4-2-3.6-3.5-3.7z" style="fill-rule:evenodd;clip-rule:evenodd;fill:#51adf1" id="_x33_"/></g></svg>