<svg xmlns="http://www.w3.org/2000/svg" width="200" height="200" style="enable-background:new 0 0 200 200" xml:space="preserve"><style>.st0{enable-background:new}</style><g id="Rounded_Rectangle_24_copy_6_1_" class="st0"><path d="m182.8 58.6-41.4-41.4c-22.9-22.9-60-22.9-82.8 0L17.1 58.6c-22.9 22.9-22.9 60 0 82.8l41.4 41.4c22.9 22.9 60 22.9 82.8 0l41.4-41.4c23-22.9 23-60 .1-82.8z" style="fill-rule:evenodd;clip-rule:evenodd;fill:#f5f6fe" id="Rounded_Rectangle_24_copy_6"/></g><g id="Shape_1_copy_2_1_" class="st0"><path d="M71.7 81.3H75v-1.7c0-2.8-2.2-5-5-5s-5 2.2-5 5v1.7h3.3v-1.7c0-.9.7-1.7 1.7-1.7.9 0 1.7.7 1.7 1.7v1.7zM85 79.7c0-.9.7-1.7 1.7-1.7.9 0 1.7.7 1.7 1.7v1.7h3.3v-1.7c0-2.8-2.2-5-5-5s-5 2.2-5 5v1.7H85v-1.7zm0 8.3v-1.7h-3.3V88c0 1.8-1.5 3.3-3.3 3.3-1.8 0-3.3-1.5-3.3-3.3v-1.7h-3.3V88c0 3.7 3 6.7 6.7 6.7s6.5-3 6.5-6.7zm61.7 50v-25c0-4.6-3.7-8.3-8.3-8.3h-35.2c-2.2-2.1-5.1-3.3-8.1-3.3h-8.3v-1.8c.9-.4 1.8-.9 2.7-1.5H105V74.7C105 59.9 93.1 48 78.3 48c-14.7 0-26.7 11.9-26.7 26.7V98h15.6c.9.6 1.8 1.1 2.7 1.5v1.8h-8.3c-6.4 0-11.7 5.2-11.7 11.7v33.3c0 .9.7 1.7 1.7 1.7H145c2.8 0 5-2.2 5-5v-5h-3.3zm-8.4-30c2.8 0 5 2.2 5 5v25H96.7v-25c0-2.8 2.2-5 5-5h36.6zm-36.6-13.3h-8.5c2.5-2.8 4.2-6.3 4.8-10h2c.6 0 1.1-.1 1.7-.3v10.3zM100 81.3h-1.7V78h1.7c.9 0 1.7.7 1.7 1.7s-.8 1.6-1.7 1.6zm-45-6.6c0-12.9 10.5-23.3 23.3-23.3 12.9 0 23.3 10.5 23.3 23.3v.3c-.5-.2-1.1-.3-1.7-.3h-1.7v-5c0-.9-.7-1.7-1.7-1.7H60c-.9 0-1.7.7-1.7 1.7v5h-1.7c-.6 0-1.1.1-1.7.3v-.3zm1.7 3.3h1.7v3.3h-1.7c-.9 0-1.7-.7-1.7-1.7s.7-1.6 1.7-1.6zM55 94.7V84.4c.5.2 1.1.3 1.7.3h2c.6 3.7 2.3 7.2 4.8 10H55zm6.7-13.4v-10H95v10C95 90.5 87.5 98 78.3 98s-16.6-7.5-16.6-16.7zm21.6 19.4v2.3c0 2.8-2.2 5-5 5s-5-2.2-5-5v-2.3c1.6.4 3.3.7 5 .7 1.7-.1 3.4-.3 5-.7zm-16.6 44V123h-3.3v21.7h-10V113c0-4.6 3.7-8.3 8.3-8.3h8.5c.9 4.5 5.3 7.4 9.8 6.5 3.3-.7 5.8-3.2 6.5-6.5H95c1.1 0 2.3.2 3.3.7-3 1.3-5 4.3-5 7.6v25H90v5c0 .6.1 1.1.3 1.7H66.7zm80-1.7c0 .9-.7 1.7-1.7 1.7H95c-.9 0-1.7-.7-1.7-1.7v-1.7h53.3v1.7zm-35.4-24.5h6.2v1.4h-7.9c.3 1.3 1.5 2.3 3 2.3h6.4v1.4h-7.9c.3 1.3 1.5 2.3 3 2.3h12.5l-1.7-7.8c-.2-1.1-1.3-1.9-2.4-1.9h-14.1c.2 1.3 1.5 2.3 2.9 2.3zm4.2 8.7c.5 1.5 2 2.7 3.7 2.7h12.4l-1.9-8.3c-.2-.7-.6-1.4-1.2-1.9s-1.4-.7-2.1-.7l1.8 8.3h-12.7z" style="fill:#51adf1" id="Shape_1_copy_2"/></g></svg>