<svg xmlns="http://www.w3.org/2000/svg" width="1920" height="324" style="enable-background:new 0 0 1920 324" xml:space="preserve"><style>.st2{opacity:.302;enable-background:new}.st3{fill:#fff}.st4{opacity:.251;enable-background:new}</style><g id="Rectangle_6_copy_1_" style="enable-background:new"><path style="fill-rule:evenodd;clip-rule:evenodd;fill:#51adf1" d="M0 0h1920v324H0z" id="Rectangle_6_copy"/></g><g id="Rounded_Rectangle_25_1_" class="st2"><path class="st3" d="M301.5 85.8c-34.3-34.4-90-34.4-124.4 0L0 263v61h306.6l54.3-54.3c34.3-34.4 34.3-90.1 0-124.5l-59.4-59.4z" id="Rounded_Rectangle_25"/></g><g id="Rounded_Rectangle_25_copy_1_" class="st4"><path class="st3" d="M425.9 85.8c-34.3-34.4-90-34.4-124.4 0L63.5 324H431l54.3-54.3c34.3-34.4 34.3-90.1 0-124.5l-59.4-59.4z" id="Rounded_Rectangle_25_copy"/></g><g id="Rounded_Rectangle_25_copy_2_3_" class="st2"><path class="st3" d="M1920 0h-306.6l-54.3 54.3c-34.3 34.4-34.3 90.1 0 124.5l59.4 59.4c34.3 34.4 90 34.4 124.4 0L1920 61V0z" id="Rounded_Rectangle_25_copy_2"/></g><g id="Rounded_Rectangle_25_copy_2_2_" class="st4"><path class="st3" d="m1489.1 0-54.3 54.3c-34.3 34.4-34.3 90.1 0 124.5l59.4 59.4c34.3 34.4 90 34.4 124.4 0L1856.5 0h-367.4z" id="Rounded_Rectangle_25_copy_2_1_"/></g></svg>