<svg xmlns="http://www.w3.org/2000/svg" width="60" height="60" style="enable-background:new 0 0 60 60" xml:space="preserve"><style>.st0{enable-background:new}</style><g id="Rounded_Rectangle_24_copy_3_1_" class="st0"><path d="M54.8 17.6 42.4 5.1c-6.9-6.9-18-6.9-24.8 0L5.1 17.6c-6.9 6.9-6.9 18 0 24.8l12.4 12.4c6.9 6.9 18 6.9 24.8 0l12.4-12.4c7-6.9 7-18 .1-24.8z" style="fill-rule:evenodd;clip-rule:evenodd;fill:#f5f6fe" id="Rounded_Rectangle_24_copy_3"/></g><g id="Rounded_Rectangle_30_copy_2_1_" class="st0"><path d="M32.9 18.4c-.8-.2-1.6.3-1.8 1.1l-6 22.2c-.2.8.3 1.6 1.1 1.8.8.2 1.6-.3 1.8-1.1l6-22.2c.1-.7-.3-1.5-1.1-1.8zm12.5 11.5L39 23.5c-.6-.6-1.5-.6-2.1 0-.6.6-.6 1.5 0 2.1l5.3 5.3-5.3 5.3c-.6.6-.6 1.5 0 2.1.6.6 1.5.6 2.1 0l6.4-6.4c.6-.4.6-1.4 0-2zm-23.3-6.3c-.6-.6-1.5-.6-2.1 0L13.6 30c-.6.6-.6 1.5 0 2.1l6.4 6.4c.6.6 1.5.6 2.1 0 .6-.6.6-1.5 0-2.1L16.8 31l5.3-5.3c.5-.6.5-1.5 0-2.1z" style="fill:#51adf1" id="Rounded_Rectangle_30_copy_2"/></g></svg>