<svg xmlns="http://www.w3.org/2000/svg" width="60" height="60" style="enable-background:new 0 0 60 60" xml:space="preserve"><style>.st0{enable-background:new}</style><g id="Rounded_Rectangle_24_1_" class="st0"><path d="M54.8 17.6 42.4 5.1c-6.9-6.9-18-6.9-24.8 0L5.1 17.6c-6.9 6.9-6.9 18 0 24.8l12.4 12.4c6.9 6.9 18 6.9 24.8 0l12.4-12.4c7-6.9 7-18 .1-24.8z" style="fill-rule:evenodd;clip-rule:evenodd;fill:#f7f8fa" id="Rounded_Rectangle_24"/></g><g id="Shape_24_1_" class="st0"><path d="M40.2 32h-3.5c.1-.5.1-1.1.1-1.6v-.1l3.5-.4 4.5-4.2c.4-.4.4-1 .1-1.5-.4-.4-1-.4-1.4-.1l-4 3.7-2.8.4c-.1-.6-.3-1.1-.5-1.6l2.7-1.5 2-5.7c.2-.5-.1-1.1-.6-1.3-.5-.2-1.1.1-1.3.6l-1.7 5-2.3 1.1c-.5-.6-1-1.2-1.6-1.6.2-.4.3-.9.3-1.4 0-2.1-1.7-3.8-3.7-3.8s-3.7 1.7-3.7 3.8c0 .5.1.9.3 1.4-.6.4-1.1 1-1.6 1.6l-2.1-1.1-1.7-5c-.2-.5-.8-.8-1.3-.6-.5.2-.8.8-.6 1.3l2 5.7 2.7 1.5c-.2.5-.4 1-.5 1.6l-2.8-.4-4-3.7c-.4-.4-1.1-.4-1.4.1-.4.4-.4 1.1.1 1.5l4.5 4.2 3.5.4v.1c0 .6 0 1.1.1 1.6H20l-4.5 4.2c-.4.4-.4 1-.1 1.5.2.2.5.3.7.3.2 0 .5-.1.7-.3l3.9-3.7H24c.1.2.2.5.3.7l-3.2 1.5-1.8 5.4c-.2.5.1 1.1.6 1.3.1 0 .2.1.3.1.4 0 .8-.3 1-.7l1.5-4.5 2.8-1.2c1.2 1.4 2.8 2.2 4.5 2.2 1.8 0 3.3-.8 4.5-2.2l2.8 1.2 1.5 4.5c.1.4.5.7 1 .7.1 0 .2 0 .3-.1.5-.2.8-.8.6-1.3l-1.8-5.4-3.2-1.5c.1-.2.2-.5.3-.7h3.3l3.9 3.7c.2.2.4.3.7.3.3 0 .5-.1.7-.3.4-.4.4-1.1-.1-1.5L40.2 32z" style="fill-rule:evenodd;clip-rule:evenodd;fill:#51adf1" id="Shape_24"/></g></svg>