<svg xmlns="http://www.w3.org/2000/svg" width="200" height="200" style="enable-background:new 0 0 200 200" xml:space="preserve"><style>.st0{enable-background:new}</style><g id="Rounded_Rectangle_24_copy_5_1_" class="st0"><path d="m182.8 58.6-41.4-41.4c-22.9-22.9-60-22.9-82.8 0L17.1 58.6c-22.9 22.9-22.9 60 0 82.8l41.4 41.4c22.9 22.9 60 22.9 82.8 0l41.4-41.4c23-22.9 23-60 .1-82.8z" style="fill-rule:evenodd;clip-rule:evenodd;fill:#f5f6fe" id="Rounded_Rectangle_24_copy_5"/></g><g id="Shape_5_1_" class="st0"><path d="M146.7 138V79.7c0-2.8-2.2-5-5-5H140V53c0-2.8-2.2-5-5-5H65c-2.8 0-5 2.2-5 5v21.7h-1.7c-2.8 0-5 2.2-5 5V138H50v5c0 2.8 2.2 5 5 5h90c2.8 0 5-2.2 5-5v-5h-3.3zM63.3 53c0-.9.7-1.7 1.7-1.7h70c.9 0 1.7.7 1.7 1.7v8.3H63.3V53zm0 11.7h73.3v65c0 .9-.7 1.7-1.7 1.7H65c-.9 0-1.7-.7-1.7-1.7v-65zm-6.6 15c0-.9.7-1.7 1.7-1.7H60v51.7c0 2.8 2.2 5 5 5h70c2.8 0 5-2.2 5-5V78h1.7c.9 0 1.7.7 1.7 1.7V138H56.7V79.7zm90 63.3c0 .9-.7 1.7-1.7 1.7H55c-.9 0-1.7-.7-1.7-1.7v-1.7h93.3v1.7zM69.5 55.1c-.2-.2-.3-.3-.5-.4-.4-.2-.9-.2-1.3 0-.2.1-.4.2-.5.4-.7.7-.7 1.7 0 2.4s1.7.7 2.4 0c.2-.2.3-.3.4-.5.2-.4.2-.9 0-1.3-.2-.2-.3-.4-.5-.6zm6.7 0c-.7-.6-1.7-.6-2.4 0-.2.2-.3.3-.4.5-.1.2-.1.4-.1.6 0 .4.2.9.5 1.2.7.6 1.7.6 2.4 0 .3-.3.5-.7.5-1.2 0-.2 0-.4-.1-.6-.1-.1-.3-.3-.4-.5zm6.6 0c-.6-.7-1.7-.7-2.4 0-.3.3-.5.7-.5 1.2 0 .9.7 1.7 1.7 1.7.4 0 .9-.2 1.2-.5.1-.2.3-.3.3-.5.2-.4.2-.9 0-1.3 0-.2-.1-.4-.3-.6zm-8.7 56.1-4.3 4.3 9.4 9.4 4.3-4.3c1 .5 2.1 1 3.2 1.3v6.1H100v-6.1c1.1-.4 2.2-.8 3.2-1.3l4.3 4.3 9.4-9.4-4.3-4.3c.5-1 1-2.1 1.3-3.2h6.1v-7.6l.7 1.2 8.7-5-2.2-3.7c.8-1 1.4-2.1 1.9-3.2h4.3v-10H129c-.5-1.1-1.1-2.2-1.9-3.2l2.2-3.7-8.7-5-2.2 3.7c-1.2-.2-2.5-.2-3.7 0l-2.2-3.7-8.7 5 2.2 3.7c-.8 1-1.4 2-1.9 3.2H100v-5H86.7v6.1c-1.1.4-2.2.8-3.2 1.3l-4.3-4.3-9.4 9.4 4.3 4.3c-.5 1-1 2.1-1.3 3.2h-6.1V108h6.1c.3 1.1.7 2.2 1.3 3.2zM103.3 83h3.4l.4-1.2c.5-1.5 1.2-2.9 2.3-4l.9-.9-1.7-2.9 2.9-1.7 1.7 2.9 1.2-.3c1.5-.4 3.1-.4 4.6 0l1.2.3 1.7-2.9 2.9 1.7-1.7 2.9.9.9c1.1 1.1 1.9 2.5 2.3 4l.4 1.2h3.4v3.3h-3.4l-.4 1.2c-.5 1.5-1.2 2.9-2.3 4l-.9.9 1.7 2.9-2.9 1.7-1.7-2.9-1.2.3c-1.5.4-3.1.4-4.6 0l-1.2-.3-1.7 2.9-2.9-1.7 1.7-2.9-.9-.9c-1.1-1.1-1.9-2.5-2.3-4l-.4-1.2h-3.4V83zM70 98h5.3l.3-1.2c.4-1.7 1.1-3.2 1.9-4.7l.7-1.1-3.7-3.7 4.7-4.7 3.7 3.7 1.1-.7c1.5-.9 3.1-1.5 4.7-2l1.3-.3V78h6.7v5.3l1.2.3c.7.2 1.4.4 2.1.7v5.4h4.3c.5 1.1 1.1 2.2 1.8 3.2l-1.2 2c-3.6-6.6-11.9-9-18.5-5.4-6.6 3.6-9.1 11.9-5.4 18.5 3.6 6.6 11.9 9.1 18.5 5.4 5.5-3 8.3-9.5 6.6-15.5l6.5 3.7 2.2-3.7c.6.1 1.2.1 1.8.1v6.7h-5.3l-.3 1.2c-.4 1.7-1.1 3.2-2 4.7l-.7 1.1 3.7 3.7-4.7 4.7-3.7-3.7-1.1.7c-1.5.9-3.1 1.5-4.7 2l-1.3.3v5.3H90v-5.3l-1.3-.3c-1.7-.4-3.2-1.1-4.7-2l-1.1-.7-3.7 3.7-4.7-4.7 3.7-3.7-.7-1.1c-.9-1.5-1.5-3.1-1.9-4.7l-.3-1.2H70V98zm33.3 3.3c0 5.5-4.5 10-10 10s-10-4.5-10-10 4.5-10 10-10c5.6 0 10 4.5 10 10zm13.4-10a6.7 6.7 0 1 0 0-13.4 6.7 6.7 0 0 0 0 13.4zm0-10c1.8 0 3.3 1.5 3.3 3.3 0 1.8-1.5 3.3-3.3 3.3s-3.3-1.5-3.3-3.3c-.1-1.8 1.4-3.3 3.3-3.3z" style="fill:#51adf1" id="Shape_5"/></g></svg>