<svg xmlns="http://www.w3.org/2000/svg" width="60" height="60" style="enable-background:new 0 0 60 60" xml:space="preserve"><style>.st0{enable-background:new}</style><g id="Rounded_Rectangle_24_copy_2_1_" class="st0"><path d="M54.8 17.6 42.4 5.1c-6.9-6.9-18-6.9-24.8 0L5.1 17.6c-6.9 6.9-6.9 18 0 24.8l12.4 12.4c6.9 6.9 18 6.9 24.8 0l12.4-12.4c7-6.9 7-18 .1-24.8z" style="fill-rule:evenodd;clip-rule:evenodd;fill:#f5f6fe" id="Rounded_Rectangle_24_copy_2"/></g><g id="_x7B_..._x7D__1_" class="st0"><path d="M14.7 24.2v3.3c0 .9-.4 1.5-1.2 1.5v2.3c.8 0 1.2.6 1.2 1.5v3.3c0 2.8 2.1 4.4 4.4 4.4h1.4v-2.7h-1.4c-.8 0-1.4-.7-1.4-1.7v-3.8c0-1-.3-1.8-1.1-2.2.8-.3 1.1-1.2 1.1-2.2v-3.8c0-1.1.6-1.7 1.4-1.7h1.4v-2.7h-1.4c-2.3 0-4.4 1.7-4.4 4.5zm9.1 7c-1.4 0-2.6 1.2-2.6 2.6 0 1.4 1.2 2.6 2.6 2.6 1.4 0 2.6-1.2 2.6-2.6 0-1.5-1.2-2.6-2.6-2.6zm6.2 0c-1.4 0-2.6 1.2-2.6 2.6 0 1.4 1.2 2.6 2.6 2.6 1.4 0 2.6-1.2 2.6-2.6 0-1.5-1.2-2.6-2.6-2.6zm6.2 0c-1.4 0-2.6 1.2-2.6 2.6 0 1.4 1.2 2.6 2.6 2.6 1.4 0 2.6-1.2 2.6-2.6-.1-1.5-1.2-2.6-2.6-2.6zm9.1-3.7v-3.3c0-2.8-2.1-4.4-4.4-4.4h-1.4v2.7h1.4c.8 0 1.4.6 1.4 1.7V28c0 1 .3 1.8 1.1 2.2-.8.3-1.1 1.2-1.1 2.2v3.8c0 1-.6 1.7-1.4 1.7h-1.4v2.7h1.4c2.3 0 4.4-1.6 4.4-4.4v-3.3c0-.9.4-1.5 1.2-1.5V29c-.8 0-1.2-.6-1.2-1.5z" style="fill:#51adf1" id="_x7B_..._x7D_"/></g></svg>