<svg xmlns="http://www.w3.org/2000/svg" width="60" height="60" style="enable-background:new 0 0 60 60" xml:space="preserve"><style>.st0{enable-background:new}</style><g id="Rounded_Rectangle_24_copy_1_" class="st0"><path d="M54.8 17.6 42.4 5.1c-6.9-6.9-18-6.9-24.8 0L5.1 17.6c-6.9 6.9-6.9 18 0 24.8l12.4 12.4c6.9 6.9 18 6.9 24.8 0l12.4-12.4c7-6.9 7-18 .1-24.8z" style="fill-rule:evenodd;clip-rule:evenodd;fill:#f5f6fe" id="Rounded_Rectangle_24_copy"/></g><g id="edit_copy_2_1_" class="st0"><path d="m42.8 18.9-2.5-2.7c-.3-.3-.7-.3-1 0L26.7 28.8c-.1.1-.1.2-.2.2 0 0-2.5 4-3.4 6.1-.4.9.4 1 .9.7 2-1 5.9-3.3 5.9-3.3.1 0 .2-.1.2-.2l12.6-12.6c.1-.1.2-.3.2-.5.1 0 0-.2-.1-.3zM40.5 26c-.8 0-1.5.7-1.5 1.5V38H21V20h10.5c.8 0 1.5-.7 1.5-1.5s-.7-1.5-1.5-1.5h-12c-.8 0-1.5.7-1.5 1.5v21c0 .8.7 1.5 1.5 1.5h21c.8 0 1.5-.7 1.5-1.5v-12c0-.8-.7-1.5-1.5-1.5z" style="fill:#51adf1" id="edit_copy_2"/></g></svg>