<svg xmlns="http://www.w3.org/2000/svg" width="200" height="200" style="enable-background:new 0 0 200 200" xml:space="preserve"><style>.st0{enable-background:new}</style><g id="Rounded_Rectangle_24_copy_4_1_" class="st0"><path d="m182.9 58.6-41.4-41.4c-22.9-22.9-60-22.9-82.8 0L17.2 58.6c-22.9 22.9-22.9 60 0 82.8l41.4 41.4c22.9 22.9 60 22.9 82.8 0l41.4-41.4c22.9-22.8 22.9-59.9.1-82.8z" style="fill-rule:evenodd;clip-rule:evenodd;fill:#f5f6fe" id="Rounded_Rectangle_24_copy_4"/></g><g id="Shape_4_1_" class="st0"><path d="M50 52v93.3h6.7v6.7h36.7v-6.7H150V52H50zm40 96.7H60v-25c0-4.3 3.3-7.8 7.5-8.2l7.5 11.2 7.5-11.3c4.2.4 7.5 4 7.5 8.3v25zm-18.5-33.3h7.1l-3.6 5.3-3.5-5.3zm75.2 26.6H93.4v-18.3c0-6.4-5.2-11.7-11.7-11.7H68.4c-6.4 0-11.7 5.2-11.7 11.7V142h-3.3V68.7h93.3V142zm0-76.6H53.4v-10h93.3v10zm-89-3.5c.2.1.4.1.6.1.9 0 1.7-.7 1.7-1.7 0-.4-.2-.9-.5-1.2-.5-.5-1.2-.6-1.8-.4-.2.1-.4.2-.5.4-.6.7-.6 1.7 0 2.4.1.2.3.3.5.4zm5.8-.9c0 .1.1.2.2.3.1.1.1.2.2.2.6.7 1.7.7 2.4 0 .3-.3.5-.7.5-1.2 0-.2 0-.4-.1-.6l-.3-.6c-.7-.6-1.7-.6-2.4 0-.1.2-.3.3-.4.6-.1.2-.1.4-.1.6v.3c-.1.2-.1.3 0 .4zm7.3.7c.1.1.2.1.3.2.1 0 .2.1.3.1h.3c.9 0 1.7-.7 1.7-1.6 0-.2 0-.4-.1-.6-.1-.2-.2-.4-.4-.6-.4-.4-1-.6-1.5-.5-.1 0-.2.1-.3.1-.1 0-.2.1-.3.2l-.2.2c-.2.2-.3.3-.3.6-.1.2-.1.4-.1.6 0 .4.2.9.5 1.2l.1.1zm25.9 42c0 4.6 3.7 8.3 8.3 8.3h30c4.6 0 8.3-3.7 8.3-8.3V80.4c0-4.6-3.7-8.3-8.3-8.3h-30c-4.6 0-8.3 3.7-8.3 8.3v9.3L91 95.4l5.7 5.7v2.6zm-1-8.3 4.3-4.3V80.4c0-2.8 2.2-5 5-5h30c2.8 0 5 2.2 5 5v23.3c0 2.8-2.2 5-5 5h-30c-2.8 0-5-2.2-5-5v-4l-4.3-4.3zm-20.7 15c6.4 0 11.7-5.2 11.7-11.7V87H75c-6.4 0-11.7 5.2-11.7 11.7.1 6.4 5.3 11.7 11.7 11.7zm8.4-11.7c0 4.6-3.7 8.3-8.3 8.3-3.4 0-6.4-2-7.7-5.1 2.8-3.1 6.8-4.8 11-4.9h5v1.7zM75 90.4h8.3v3.3h-5c-4.2 0-8.3 1.5-11.6 4.1.5-4.2 4.1-7.4 8.3-7.4zm.7 40.1c-.4-.2-.9-.2-1.3 0-.2.1-.4.2-.5.4-.6.7-.6 1.7 0 2.4.7.6 1.7.6 2.4 0 .6-.7.6-1.7 0-2.3-.2-.3-.4-.4-.6-.5zm-1.9 8.7c-.6.7-.6 1.7 0 2.4.7.6 1.7.6 2.4 0 .6-.6.6-1.7 0-2.3-.7-.7-1.7-.7-2.4-.1zm39.6-37.2h15c4.6 0 8.3-3.7 8.3-8.3v-3.3c0-2.8-2.2-5-5-5h-5v-1.7c0-2.8-2.2-5-5-5s-5 2.2-5 5v1.7h-3.3V82h-10v23.3h10V102zm0-13.3h6.7v-5c0-.9.7-1.7 1.7-1.7.9 0 1.7.7 1.7 1.7v5h8.3c.9 0 1.7.7 1.7 1.7v3.3c0 2.8-2.2 5-5 5h-15v-10zM110 102h-3.3V85.4h3.3V102z" style="fill:#51adf1" id="Shape_4"/></g></svg>